<?xml version="1.0" encoding="UTF-8"?><svg id="Layer_1" xmlns="http://www.w3.org/2000/svg" viewBox="0 0 661.41 232.36"><defs><style>.cls-1{fill:#041b2b;}.cls-2{fill:#df1a2d;}</style></defs><path class="cls-2" d="M650.05,72.58c-3.89,2.36-8.02,4.32-12.32,5.83-4.68,1.85-9.58,3.09-14.58,3.69-2.13,.36-4.29,.67-6.5,.9h-.06c-20.45,1.83-37.93-2.5-47.95-11.86-.1-.07-.16-.18-.26-.25,0,.37,0,.74-.05,1.13,.06,4.19,1.63,8.21,4.43,11.33,8.14,9.28,23.76,14.3,41.88,14.51,12.08,0,23.09-2.28,31.51-6.36,3.98-1.86,7.55-4.49,10.51-7.73,2.83-3.1,4.44-7.12,4.54-11.32,0-2.63-.65-5.22-1.87-7.55-2.7,3-5.83,5.59-9.29,7.68Zm-35.69-12.72c-19.12,1.53-35.59-1.99-45.86-10.09,.32,3.81,1.86,7.42,4.39,10.28,8.13,9.28,23.76,14.28,41.82,14.5,12.1,0,23.09-2.27,31.5-6.37,3.99-1.85,7.57-4.47,10.52-7.73,2.83-3.1,4.43-7.12,4.52-11.32,0-3.26-.98-6.44-2.79-9.15-2.57,3.51-13.84,17.45-44.11,19.87Zm.52-8.61c12.09,0,23.08-2.27,31.48-6.38,3.99-1.84,7.58-4.47,10.53-7.73,5.99-6.34,6.03-16.24,.1-22.64-8.14-9.29-23.74-14.27-41.87-14.5-12.08,0-23.08,2.26-31.48,6.35-3.99,1.85-7.57,4.48-10.54,7.73-2.82,3.11-4.43,7.12-4.54,11.31,.07,4.2,1.64,8.23,4.44,11.36,8.12,9.28,23.76,14.26,41.88,14.5h0Zm-35.43-35.04c4.39-5.4,18.05-10.68,34.06-10.47,10.7,0,20.31,2.27,26.81,5.57,2.72,1.24,5.15,3.02,7.16,5.23,1.2,1.22,1.91,2.84,1.99,4.55-.09,1.7-.8,3.32-1.99,4.54-4.4,5.4-18.08,10.69-34.1,10.45-10.7,0-20.31-2.29-26.8-5.57-2.71-1.25-5.14-3.03-7.17-5.22-1.19-1.24-1.9-2.86-1.99-4.58,.11-1.7,.83-3.3,2.03-4.5Z"/><path class="cls-2" d="M165.93,64.89c-4.31-4.88-10.39-7.31-18.24-7.29l-35.84,.13-2.62,13.5,35.84-.14c3.4-.2,6.69,1.24,8.85,3.86,2.12,2.7,2.89,6.23,2.09,9.57l-.54,2.33-.17,1.59-33.21,.13c-7.78,0-15.32,2.73-21.31,7.71-6.16,4.8-10.35,11.69-11.8,19.37l-.35,1.42c-1.64,7.81-.34,14.24,3.9,19.32,4.24,5.07,10.29,7.59,18.16,7.55l46.95-.17,12.46-59.99c1.51-7.7,.12-14-4.18-18.89Zm-19.22,65.41l-33.21,.13c-3.44,.17-6.77-1.26-9.03-3.86-2.21-2.59-2.91-5.78-2.09-9.57l.36-1.42c.73-3.83,2.86-7.25,5.97-9.6,2.97-2.52,6.71-3.92,10.6-3.98l33.04-.12-5.64,28.43ZM246.57,57.22l-14.93,73.09-34.28,.13c-3.45,.17-6.79-1.27-9.03-3.89-2.22-2.61-2.91-5.82-2.09-9.64l12.1-59.5h-13.75l-12.1,59.5c-1.64,7.87-.31,14.35,3.98,19.44,4.29,5.1,10.37,7.64,18.24,7.62l34.46-.13-1.06,4.98c-.89,3.79-3.04,7.17-6.11,9.57-2.87,2.56-6.54,4.02-10.38,4.13l-46.96,.18-2.8,13.57,46.95-.18c7.73-.08,15.19-2.9,21.04-7.97,6.15-4.85,10.41-11.68,12.07-19.34l18.58-91.67-13.92,.1Z"/><path class="cls-1" d="M390.16,143.53l-46.95,.18c-7.87,0-13.92-2.54-18.15-7.61-4.23-5.07-5.54-11.56-3.91-19.46l.35-1.43c1.43-7.73,5.63-14.67,11.81-19.53,5.98-5.01,13.52-7.76,21.32-7.77l33.19-.12,.18-1.61,.53-2.32c.7-3.82,0-7.04-2.09-9.65-2.15-2.64-5.45-4.09-8.85-3.89l-38.64,.14,2.62-13.6,38.65-.14c7.85,0,13.93,2.45,18.24,7.35,4.31,4.9,5.7,11.24,4.17,19.02l-12.46,60.46Zm-10.95-13.54l5.61-28.61-33.04,.13c-3.89,.04-7.64,1.45-10.6,3.98-3.12,2.37-5.25,5.82-5.97,9.67l-.34,1.43c-.83,3.81-.13,7.04,2.08,9.65,2.25,2.63,5.58,4.06,9.03,3.89l33.23-.14Z"/><path class="cls-1" d="M480.14,119.91c-1.39,7.29-5.71,13.7-11.95,17.72-6.01,4.02-13.11,6.11-20.34,5.97l-46.42,.18,2.81-13.58,46.43-.17c9.16-.04,14.38-3.39,15.67-10.06l.71-3.22c1.39-6.64-2.49-9.96-11.65-9.96l-20.91,.08c-7.73,0-13.71-1.94-17.92-5.82-4.77-4.26-6.4-10.15-4.89-17.65l.71-3.22c1.37-7.29,5.67-13.69,11.9-17.72,6.01-4.01,13.1-6.09,20.33-5.97l46.6-.17-2.52,13.6-46.6,.18c-9.17,0-14.45,3.35-15.86,10.06l-.7,3.22c-1.28,6.67,2.66,9.99,11.83,9.96l20.91-.08c7.73,0,13.7,1.94,17.92,5.82,4.65,4.26,6.22,10.15,4.71,17.66l-.77,3.17Z"/><path class="cls-1" d="M542.96,143.6l-21.78,.08c-7.86,0-13.94-2.56-18.23-7.67-4.29-5.11-5.62-11.64-3.98-19.59l9.47-46.98h-8.57l2.99-14.04h8.57l6.31-31.32h13.94l-6.31,31.32,28.87-.11-2.99,14.04-28.87,.11-9.47,46.98c-.82,3.83-.15,7.08,1.99,9.71,2.2,2.65,5.52,4.11,8.96,3.92l21.77-.08-2.67,13.63Z"/><path class="cls-2" d="M103.54,65.34c-1.52,7.52-5.72,14.24-11.81,18.92-5.82,4.94-13.19,7.69-20.83,7.77l-46.8,.17-10.54,51.77H0L24,27.23l60.39-.22c7.51,0,13.36,2.54,17.55,7.61,4.19,5.07,5.52,11.35,3.98,18.85l-2.39,11.88Zm-13.55,0l2.42-11.88c.81-3.72,.15-6.86-1.99-9.42-2.18-2.58-5.45-4-8.82-3.81l-46.8,.18-7.97,38.43,46.8-.17c3.8-.03,7.48-1.41,10.36-3.88,3.04-2.34,5.16-5.66,5.99-9.4v-.05Z"/><path class="cls-1" d="M365.93,38.23l-56.88,.21c-8.02,.28-14.88,5.86-16.79,13.66l-5.22,25.98,35.49-.14-2.82,13.78-35.32,.13-10.77,52.05-13.79,.06,18.63-91.81c3.44-15.75,17.26-27.06,33.38-27.31l56.88-.21-2.81,13.6Z"/><g><path class="cls-1" d="M394.68,202.7v.98c0,.37,0,.67-.03,.98h-23.73c.03,1.25,.3,2.42,.86,3.55,.55,1.13,1.22,2.05,2.11,2.87,.89,.8,1.9,1.44,3.06,1.93,1.16,.46,2.38,.67,3.67,.67,2.02,0,3.76-.46,5.26-1.31,1.47-.89,2.6-1.99,3.46-3.24l4.16,3.33c-1.62,2.11-3.46,3.67-5.66,4.68-2.14,.98-4.59,1.47-7.22,1.47-2.29,0-4.34-.37-6.27-1.13-1.93-.76-3.58-1.8-4.98-3.18-1.38-1.35-2.48-3-3.27-4.92-.79-1.93-1.22-4.07-1.22-6.42s.4-4.44,1.16-6.42c.76-1.99,1.9-3.64,3.24-5.02,1.38-1.38,3.06-2.48,4.92-3.24,1.9-.77,3.94-1.16,6.09-1.16s4.16,.37,5.96,1.07c1.8,.7,3.33,1.74,4.53,3.09,1.25,1.35,2.2,2.97,2.87,4.89,.74,2.02,1.04,4.16,1.04,6.54m-6.02-2.38c-.03-1.16-.21-2.29-.58-3.33-.37-1.04-.89-1.93-1.56-2.69-.67-.77-1.56-1.35-2.6-1.8-1.04-.46-2.23-.67-3.64-.67-1.25,0-2.48,.21-3.55,.67-1.13,.46-2.05,1.04-2.9,1.8-.8,.76-1.47,1.65-2.02,2.69-.55,1.04-.86,2.14-.89,3.33h17.73Z"/><polygon class="cls-1" points="454.46 188.02 447.71 211.05 440.4 188.02 434.16 188.02 426.97 211.05 420.15 188.02 413.73 188.02 423.7 217.9 429.85 217.9 437.16 195.48 437.28 195.48 444.65 217.9 450.82 217.9 460.7 188.02 454.46 188.02"/><path class="cls-1" d="M492.32,202.88c0,2.32-.4,4.43-1.22,6.36-.8,1.93-1.99,3.58-3.39,5.01-1.44,1.38-3.15,2.51-5.11,3.27-1.99,.76-4.07,1.16-6.36,1.16s-4.4-.4-6.36-1.16c-1.99-.77-3.67-1.9-5.11-3.27-1.44-1.38-2.57-3.09-3.36-5.01-.8-1.93-1.22-4.04-1.22-6.36s.4-4.43,1.22-6.33c.8-1.93,1.93-3.55,3.36-4.92,1.44-1.38,3.15-2.48,5.11-3.24,1.99-.76,4.07-1.16,6.36-1.16s4.4,.4,6.36,1.16c1.99,.76,3.67,1.83,5.11,3.24,1.44,1.41,2.6,3.06,3.39,4.92,.83,1.93,1.22,4.04,1.22,6.33m-6.18,.03c0-1.44-.21-2.78-.67-4.07-.46-1.31-1.07-2.42-1.93-3.39-.86-.98-1.9-1.74-3.15-2.39-1.25-.58-2.66-.89-4.25-.89s-3,.31-4.25,.89c-1.25,.58-2.29,1.38-3.15,2.39-.86,1.01-1.47,2.11-1.93,3.39-.46,1.32-.67,2.66-.67,4.07s.21,2.78,.67,4.07c.46,1.28,1.07,2.48,1.93,3.46,.86,.98,1.9,1.8,3.15,2.38,1.25,.58,2.66,.89,4.25,.89s3-.3,4.25-.89c1.25-.58,2.29-1.38,3.15-2.38,.86-.98,1.47-2.14,1.93-3.46,.49-1.28,.67-2.63,.67-4.07"/><rect class="cls-1" x="515.1" y="178.79" width="5.93" height="39.11"/><path class="cls-1" d="M411.38,192.55v-4.52h-7.46v-9.23h-5.87v30.27c0,3.09,.77,5.41,2.23,7,1.47,1.56,3.64,2.32,6.45,2.32,.95,0,1.8-.09,2.69-.21,.7-.12,1.35-.27,1.93-.49v-4.89c-.46,.18-.95,.31-1.47,.46-.64,.12-1.22,.18-1.74,.18-1.47,0-2.57-.4-3.24-1.16-.67-.76-.98-2.05-.98-3.85v-15.84l7.46-.03Z"/><path class="cls-1" d="M510.09,187.23c-2.02,0-3.82,.55-5.41,1.62-1.62,1.07-3.06,2.48-3.85,4.25v-5.08h-5.59v29.88h5.93v-15.69c0-1.25,.18-2.48,.49-3.64,.31-1.16,.86-2.14,1.53-3.06,.67-.89,1.56-1.56,2.6-2.11,1.04-.55,2.29-.8,3.73-.8,.95,0,1.83,.09,2.69,.3v-5.5c-.61-.15-1.28-.18-2.11-.18"/><path class="cls-1" d="M361.08,194.63c-.46-1.47-1.13-2.72-2.05-3.85-.95-1.07-2.05-1.99-3.46-2.6-1.38-.64-3.06-.98-4.98-.98-1.07,0-2.14,.12-3.15,.46-.98,.31-1.93,.7-2.78,1.22-.86,.55-1.56,1.13-2.23,1.83-.67,.67-1.35,1.44-1.74,2.23v-4.89h-5.56v29.88h5.93v-15.87c0-2.97,.76-5.38,2.23-7.12,1.47-1.8,3.4-2.69,5.75-2.69,1.38,0,2.51,.27,3.39,.76,.89,.49,1.56,1.16,2.05,2.02,.49,.86,.86,1.81,1.04,2.9,.18,1.07,.27,2.23,.27,3.46v16.54h5.96v-18.53c0-1.71-.21-3.3-.67-4.77"/><polygon class="cls-1" points="533.63 188.02 540.94 188.02 528.34 203.07 540.76 217.9 533.45 217.9 521.03 203.07 533.63 188.02"/><path class="cls-1" d="M259.77,171.35h5.51v21.44h.12c.98-1.51,2.39-2.69,4.23-3.55,1.84-.9,3.8-1.35,5.88-1.35,2.25,0,4.27,.39,6.06,1.16,1.84,.78,3.39,1.86,4.66,3.25,1.31,1.35,2.31,2.96,3,4.84,.7,1.84,1.04,3.84,1.04,6s-.35,4.17-1.04,6c-.69,1.84-1.69,3.45-3,4.84-1.27,1.39-2.82,2.47-4.66,3.25-1.8,.78-3.82,1.16-6.06,1.16-1.96,0-3.88-.43-5.76-1.29-1.84-.86-3.29-2.06-4.35-3.61h-.12v4.16h-5.51v-46.31Zm15.07,41.9c1.47,0,2.8-.24,3.98-.73,1.18-.53,2.18-1.22,3-2.08,.82-.9,1.45-1.96,1.9-3.18,.45-1.27,.67-2.63,.67-4.1s-.23-2.82-.67-4.04c-.45-1.26-1.08-2.33-1.9-3.18-.82-.9-1.82-1.59-3-2.08-1.18-.53-2.51-.8-3.98-.8s-2.8,.27-3.98,.8c-1.18,.49-2.18,1.18-3,2.08-.82,.86-1.45,1.92-1.9,3.18-.45,1.23-.67,2.57-.67,4.04s.23,2.84,.67,4.1c.45,1.22,1.08,2.29,1.9,3.18,.82,.86,1.82,1.55,3,2.08,1.18,.49,2.51,.73,3.98,.73"/><path class="cls-1" d="M290.66,188.62h6.37l8.64,22.66h.12l8.21-22.66h5.94l-13.78,35.28c-.49,1.27-1,2.41-1.53,3.43-.53,1.06-1.16,1.96-1.9,2.69-.74,.74-1.63,1.31-2.69,1.72-1.02,.41-2.29,.61-3.8,.61-.82,0-1.65-.06-2.51-.18-.82-.08-1.61-.29-2.39-.61l.67-5.02c1.1,.45,2.21,.67,3.31,.67,.86,0,1.57-.12,2.14-.37,.61-.2,1.12-.53,1.53-.98,.45-.41,.82-.9,1.1-1.47,.29-.57,.57-1.23,.86-1.96l1.78-4.59-12.07-29.22Z"/></g></svg>